<?xml version="1.0" encoding="utf-8"?>
<!-- Generator: Adobe Illustrator 23.0.1, SVG Export Plug-In . SVG Version: 6.00 Build 0)  -->
<svg version="1.1" id="レイヤー_1" xmlns="http://www.w3.org/2000/svg" xmlns:xlink="http://www.w3.org/1999/xlink" x="0px"
	 y="0px" viewBox="0 0 226.77 226.77" style="enable-background:new 0 0 226.77 226.77;" xml:space="preserve">
<style type="text/css">
	.st0{fill:none;stroke:#9FAABA;stroke-width:3;stroke-miterlimit:10;}
	.st1{fill:#9FAABA;}
	.st2{fill:none;stroke:#3C4755;stroke-width:3;stroke-miterlimit:10;}
	.st3{fill:#3C4755;}
</style>
<g>
	<path d="M115.71,92.63c-0.14,0.14-0.47,0.42-0.47,0.59c0,0.09,0.09,0.2,0.19,0.2c0.09,0,0.14-0.08,0.2-0.14
		c0.11-0.14,0.34-0.42,0.78-0.64c0.06-0.05,0.17-0.09,0.17-0.2c0-0.11-0.08-0.16-0.14-0.2c-0.22-0.16-0.33-0.33-0.41-0.56
		c-0.03-0.09-0.06-0.23-0.2-0.23s-0.2,0.14-0.2,0.22c0,0.05,0.08,0.36,0.23,0.58h-3.36c-0.16,0-0.34,0-0.34,0.2
		c0,0.19,0.19,0.19,0.34,0.19H115.71z M115.71,92.63"/>
	<path d="M113.99,94.41c-0.11-0.25-0.22-0.25-0.39-0.25c-0.28,0-0.33,0.08-0.39,0.25l-2.47,6c-0.06,0.16-0.09,0.23-0.84,0.23h-0.22
		v0.47c0.38-0.02,0.86-0.03,1.17-0.03c0.39,0,0.94,0,1.31,0.03v-0.47c-0.02,0-0.89,0-0.89-0.13c0-0.01,0.03-0.11,0.05-0.13l0.5-1.2
		h2.67l0.59,1.45h-0.95v0.47c0.39-0.03,1.33-0.03,1.76-0.03c0.39,0,1.27,0,1.63,0.03v-0.47h-0.97L113.99,94.41z M113.15,95.96
		l1.14,2.76h-2.28L113.15,95.96z M113.15,95.96"/>
</g>
<g>
	<path d="M133.41,122.1c-0.14,0.14-0.47,0.42-0.47,0.59c0,0.09,0.09,0.2,0.19,0.2c0.09,0,0.14-0.08,0.2-0.14
		c0.11-0.14,0.34-0.42,0.78-0.64c0.06-0.05,0.17-0.09,0.17-0.2c0-0.11-0.08-0.16-0.14-0.2c-0.22-0.16-0.33-0.33-0.41-0.56
		c-0.03-0.09-0.06-0.23-0.2-0.23c-0.14,0-0.2,0.14-0.2,0.22c0,0.05,0.08,0.36,0.24,0.58h-3.36c-0.16,0-0.34,0-0.34,0.2
		c0,0.19,0.19,0.19,0.34,0.19H133.41z M133.41,122.1"/>
	<path d="M130,126.85v-2.64h1.81c1.02,0,1.19,0.8,1.19,1.25c0,0.76-0.47,1.39-1.44,1.39H130z M132.7,127.02
		c1.08-0.2,1.72-0.8,1.72-1.56c0-0.92-0.87-1.72-2.47-1.72h-4.33v0.47h1.08v5.91h-1.08v0.47h4.63c1.66,0,2.48-0.88,2.48-1.86
		C134.74,127.77,133.89,127.1,132.7,127.02L132.7,127.02z M131.85,130.11H130v-2.91h1.94c0.2,0,0.67,0,1.02,0.42
		c0.33,0.42,0.33,0.98,0.33,1.09C133.28,128.83,133.28,130.11,131.85,130.11L131.85,130.11z M131.85,130.11"/>
</g>
<g>
	<g>
		<line class="st0" x1="71.08" y1="108.68" x2="148.88" y2="108.68"/>
		<g>
			<path class="st1" d="M156.12,108.68c-3.41,1.26-7.64,3.42-10.26,5.71l2.06-5.71l-2.06-5.71
				C148.49,105.26,152.71,107.42,156.12,108.68z"/>
		</g>
	</g>
</g>
<g>
	<g>
		<line class="st0" x1="154.84" y1="116.25" x2="105.39" y2="116.25"/>
		<g>
			<path class="st1" d="M98.14,116.25c3.41-1.26,7.64-3.42,10.26-5.71l-2.06,5.71l2.06,5.71
				C105.78,119.67,101.55,117.51,98.14,116.25z"/>
		</g>
	</g>
</g>
<g>
	<g>
		<line class="st2" x1="71.08" y1="116.16" x2="90.9" y2="116.16"/>
		<g>
			<path class="st3" d="M98.14,116.16c-3.41,1.26-7.64,3.42-10.26,5.71l2.06-5.71l-2.06-5.71C90.51,112.74,94.74,114.9,98.14,116.16
				z"/>
		</g>
	</g>
</g>
<g>
	<path d="M76.68,126.02c-0.14,0.14-0.47,0.42-0.47,0.59c0,0.09,0.09,0.2,0.19,0.2c0.09,0,0.14-0.08,0.2-0.14
		c0.11-0.14,0.34-0.42,0.78-0.64c0.06-0.05,0.17-0.09,0.17-0.2c0-0.11-0.08-0.16-0.14-0.2c-0.22-0.16-0.33-0.33-0.41-0.56
		c-0.03-0.09-0.06-0.23-0.2-0.23c-0.14,0-0.2,0.14-0.2,0.22c0,0.05,0.08,0.36,0.23,0.58h-3.36c-0.16,0-0.34,0-0.34,0.2
		c0,0.19,0.19,0.19,0.34,0.19H76.68z M76.68,126.02"/>
	<path d="M74.96,127.8c-0.11-0.25-0.22-0.25-0.39-0.25c-0.28,0-0.33,0.08-0.39,0.25l-2.47,6c-0.06,0.16-0.09,0.23-0.84,0.23h-0.22
		v0.47c0.38-0.02,0.86-0.03,1.17-0.03c0.39,0,0.94,0,1.31,0.03v-0.47c-0.02,0-0.89,0-0.89-0.13c0-0.02,0.03-0.11,0.05-0.12l0.5-1.2
		h2.67l0.59,1.45H75.1v0.47c0.39-0.03,1.33-0.03,1.76-0.03c0.39,0,1.27,0,1.63,0.03v-0.47h-0.97L74.96,127.8z M74.12,129.35
		l1.14,2.76h-2.28L74.12,129.35z M74.12,129.35"/>
	<path d="M85.2,132.21h2.78c0.14,0,0.33,0,0.33-0.2c0-0.19-0.19-0.19-0.33-0.19H85.2v-2.8c0-0.14,0-0.33-0.2-0.33
		s-0.2,0.19-0.2,0.33v2.8h-2.78c-0.14,0-0.33,0-0.33,0.19c0,0.2,0.19,0.2,0.33,0.2h2.78v2.8c0,0.14,0,0.33,0.2,0.33
		s0.2-0.19,0.2-0.33V132.21z M85.2,132.21"/>
	<path d="M97.26,126.02c-0.14,0.14-0.47,0.42-0.47,0.59c0,0.09,0.09,0.2,0.19,0.2c0.09,0,0.14-0.08,0.2-0.14
		c0.11-0.14,0.34-0.42,0.78-0.64c0.06-0.05,0.17-0.09,0.17-0.2c0-0.11-0.08-0.16-0.14-0.2c-0.22-0.16-0.33-0.33-0.41-0.56
		c-0.03-0.09-0.06-0.23-0.2-0.23c-0.14,0-0.2,0.14-0.2,0.22c0,0.05,0.08,0.36,0.23,0.58h-3.36c-0.16,0-0.34,0-0.34,0.2
		c0,0.19,0.19,0.19,0.34,0.19H97.26z M97.26,126.02"/>
	<path d="M93.84,130.77v-2.64l1.81,0c1.02,0,1.19,0.8,1.19,1.25c0,0.77-0.47,1.39-1.44,1.39L93.84,130.77z M96.55,130.94
		c1.08-0.2,1.72-0.8,1.72-1.56c0-0.92-0.87-1.72-2.47-1.72h-4.33v0.47h1.08v5.91h-1.08v0.47l4.63,0c1.66,0,2.48-0.88,2.48-1.86
		C98.58,131.69,97.74,131.02,96.55,130.94L96.55,130.94z M95.69,134.03l-1.84,0v-2.91l1.94,0c0.2,0,0.67,0,1.02,0.42
		c0.33,0.42,0.33,0.98,0.33,1.09C97.13,132.75,97.13,134.03,95.69,134.03L95.69,134.03z M95.69,134.03"/>
</g>
</svg>
