<?xml version="1.0" encoding="utf-8"?>
<!-- Generator: Adobe Illustrator 23.0.1, SVG Export Plug-In . SVG Version: 6.00 Build 0)  -->
<svg version="1.1" id="レイヤー_1" xmlns="http://www.w3.org/2000/svg" xmlns:xlink="http://www.w3.org/1999/xlink" x="0px"
	 y="0px" viewBox="0 0 226.77 226.77" style="enable-background:new 0 0 226.77 226.77;" xml:space="preserve">
<style type="text/css">
	.st0{fill:none;stroke:#9FAABA;stroke-width:3;stroke-miterlimit:10;}
	.st1{fill:#9FAABA;}
</style>
<g>
	<g>
		<line class="st0" x1="63.77" y1="129.64" x2="102.67" y2="62.26"/>
		<g>
			<path class="st1" d="M106.29,55.99c-0.61,3.58-0.85,8.32-0.19,11.74l-3.91-4.64l-5.97-1.07
				C99.51,60.89,103.49,58.31,106.29,55.99z"/>
		</g>
	</g>
</g>
<g>
	<g>
		<line class="st0" x1="167.52" y1="55.54" x2="100.28" y2="172.01"/>
		<g>
			<path class="st1" d="M96.66,178.28c0.61-3.58,0.85-8.32,0.19-11.74l3.91,4.64l5.97,1.07C103.44,173.38,99.46,175.96,96.66,178.28
				z"/>
		</g>
	</g>
</g>
<g>
	<path d="M79.8,81.85c-0.14,0.14-0.47,0.42-0.47,0.59c0,0.09,0.09,0.2,0.19,0.2c0.09,0,0.14-0.08,0.2-0.14
		c0.11-0.14,0.34-0.42,0.78-0.64c0.06-0.05,0.17-0.09,0.17-0.2c0-0.11-0.08-0.16-0.14-0.2c-0.22-0.16-0.33-0.33-0.41-0.56
		c-0.03-0.09-0.06-0.23-0.2-0.23s-0.2,0.14-0.2,0.22c0,0.05,0.08,0.36,0.23,0.58h-3.36c-0.16,0-0.34,0-0.34,0.2
		c0,0.19,0.19,0.19,0.34,0.19H79.8z M79.8,81.85"/>
	<path d="M78.08,83.63c-0.11-0.25-0.22-0.25-0.39-0.25c-0.28,0-0.33,0.08-0.39,0.25l-2.47,6c-0.06,0.16-0.09,0.23-0.84,0.23h-0.22
		v0.47c0.38-0.02,0.86-0.03,1.17-0.03c0.39,0,0.94,0,1.31,0.03v-0.47c-0.02,0-0.89,0-0.89-0.13c0-0.01,0.03-0.11,0.05-0.13l0.5-1.2
		h2.67l0.59,1.45h-0.95v0.47c0.39-0.03,1.33-0.03,1.76-0.03c0.39,0,1.27,0,1.63,0.03v-0.47h-0.97L78.08,83.63z M77.24,85.18
		l1.14,2.76H76.1L77.24,85.18z M77.24,85.18"/>
</g>
<g>
	<path d="M142.48,118.1c-0.14,0.14-0.47,0.42-0.47,0.59c0,0.09,0.09,0.2,0.19,0.2c0.09,0,0.14-0.08,0.2-0.14
		c0.11-0.14,0.34-0.42,0.78-0.64c0.06-0.05,0.17-0.09,0.17-0.2c0-0.11-0.08-0.16-0.14-0.2c-0.22-0.16-0.33-0.33-0.41-0.56
		c-0.03-0.09-0.06-0.23-0.2-0.23c-0.14,0-0.2,0.14-0.2,0.22c0,0.05,0.08,0.36,0.24,0.58h-3.36c-0.16,0-0.34,0-0.34,0.2
		c0,0.19,0.19,0.19,0.34,0.19H142.48z M142.48,118.1"/>
	<path d="M139.07,122.85v-2.64h1.81c1.02,0,1.19,0.8,1.19,1.25c0,0.76-0.47,1.39-1.44,1.39H139.07z M141.78,123.02
		c1.08-0.2,1.72-0.8,1.72-1.56c0-0.92-0.87-1.72-2.47-1.72h-4.33v0.47h1.08v5.91h-1.08v0.47h4.63c1.66,0,2.48-0.88,2.48-1.86
		C143.81,123.77,142.96,123.1,141.78,123.02L141.78,123.02z M140.92,126.11h-1.84v-2.91h1.94c0.2,0,0.67,0,1.02,0.42
		c0.33,0.42,0.33,0.98,0.33,1.09C142.35,124.83,142.35,126.11,140.92,126.11L140.92,126.11z M140.92,126.11"/>
</g>
</svg>
